<?xml version="1.0" encoding="utf-8"?>
<!-- Generator: Adobe Illustrator 25.0.0, SVG Export Plug-In . SVG Version: 6.00 Build 0)  -->
<svg version="1.1" xmlns="http://www.w3.org/2000/svg" xmlns:xlink="http://www.w3.org/1999/xlink" x="0px" y="0px"
	 viewBox="0 0 841.89 595.28" style="enable-background:new 0 0 841.89 595.28;" xml:space="preserve">
<style type="text/css">
	.st0{fill:none;}
	.st1{fill:#312782;}
	.st2{fill:url(#SVGID_1_);}
</style>
<g id="Calque_1">
</g>
<g id="Calque_6">
</g>
<g id="Calque_5">
</g>
<g id="Calque_4">
</g>
<g id="Calque_3">
</g>
<g id="Calque_2">
	<g>
		<g>
			<g>
				<path class="st0" d="M712.9,222.52h-5.54l-0.26,2.59l5.49,0.01c0.84-0.01,1.32-0.42,1.45-1.21
					C714.17,223.12,713.79,222.66,712.9,222.52z"/>
				<path class="st0" d="M709.86,213.72c-6.92,0-12.56,5.63-12.56,12.56c0,6.92,5.63,12.56,12.56,12.56
					c6.92,0,12.55-5.63,12.55-12.56C722.42,219.36,716.79,213.72,709.86,213.72z M717.61,233.77h-4.98l-2.03-4.7h-3.96l-0.46,4.65
					l-4.48,0.01l1.5-14.93h10.35c3.13,0.52,4.62,2.21,4.46,5.08c-0.04,2.1-0.87,3.76-2.5,4.98L717.61,233.77z"/>
				<path class="st1" d="M718.01,223.87c0.16-2.87-1.33-4.56-4.46-5.08h-10.35l-1.5,14.93l4.48-0.01l0.46-4.65h3.96l2.03,4.7h4.98
					l-2.09-4.92C717.14,227.63,717.97,225.97,718.01,223.87z M712.6,225.13l-5.49-0.01l0.26-2.59h5.54c0.89,0.14,1.27,0.6,1.15,1.39
					C713.92,224.71,713.44,225.11,712.6,225.13z"/>
				<path class="st1" d="M709.86,211.56c-8.11,0-14.72,6.6-14.72,14.72c0,8.11,6.6,14.72,14.72,14.72s14.71-6.6,14.71-14.72
					C724.58,218.17,717.98,211.56,709.86,211.56z M709.86,238.84c-6.92,0-12.56-5.63-12.56-12.56c0-6.92,5.63-12.56,12.56-12.56
					c6.92,0,12.55,5.63,12.55,12.56C722.42,233.2,716.79,238.84,709.86,238.84z"/>
			</g>
			<path class="st1" d="M626.58,220.6c11.11,0,21.63,2.14,31.57,6.41c9.93,4.28,18.59,10.1,25.96,17.46
				c7.37,7.37,13.19,16.02,17.47,25.96c4.27,9.93,6.41,20.46,6.41,31.57c0,11.33-2.14,21.9-6.41,31.73
				c-4.28,9.83-10.1,18.43-17.47,25.8c-7.37,7.37-16.02,13.19-25.96,17.46c-9.93,4.27-20.46,6.41-31.57,6.41
				c-11.33,0-21.9-2.14-31.73-6.41c-9.83-4.27-18.43-10.1-25.8-17.46c-7.37-7.37-13.19-15.97-17.46-25.8
				c-4.28-9.82-6.41-20.4-6.41-31.73c0-11.11,2.13-21.63,6.41-31.57c4.27-9.93,10.09-18.59,17.46-25.96
				c7.37-7.37,15.97-13.19,25.8-17.46C604.68,222.73,615.25,220.6,626.58,220.6z M626.58,356.79c5.77,0,11.27-1.44,16.5-4.33
				c5.23-2.88,9.77-6.78,13.62-11.7c3.85-4.91,6.89-10.74,9.13-17.46c2.24-6.73,3.36-13.83,3.36-21.31c0-7.48-1.12-14.53-3.36-21.15
				c-2.24-6.62-5.29-12.44-9.13-17.46c-3.85-5.02-8.39-8.97-13.62-11.86c-5.24-2.88-10.74-4.33-16.5-4.33
				c-5.98,0-11.54,1.44-16.66,4.33c-5.13,2.88-9.61,6.84-13.46,11.86c-3.85,5.02-6.89,10.85-9.13,17.46
				c-2.24,6.63-3.37,13.67-3.37,21.15c0,7.48,1.12,14.58,3.37,21.31c2.24,6.73,5.29,12.55,9.13,17.46
				c3.85,4.92,8.33,8.81,13.46,11.7C615.04,355.35,620.59,356.79,626.58,356.79z"/>
			<g>
				<path class="st0" d="M490.86,260.33c-2.24-2.99-5.56-5.61-9.93-7.85c-4.38-2.24-10.52-3.37-18.43-3.37
					c-6.2,0-11.81,1.34-16.82,4.01c-5.02,2.67-9.35,6.41-12.98,11.22c-3.63,4.81-6.46,10.57-8.49,17.3
					c-1.38,4.58-2.26,9.46-2.7,14.58c-0.09,1.03,10.97,2.73,12.02,2.85c4.67,0.54,9.38,0.6,14.07,0.77
					c5.99,0.22,12.01,0.1,17.94-0.74c9.08-1.28,15.86-3.53,20.35-6.73c4.49-3.21,7.26-6.57,8.33-10.1c1.06-3.52,1.6-5.93,1.6-7.21
					c0-1.07-0.27-3.04-0.8-5.93C494.49,266.26,493.11,263.33,490.86,260.33z"/>
				<linearGradient id="SVGID_1_" gradientUnits="userSpaceOnUse" x1="310.6052" y1="302.1537" x2="530.8295" y2="302.1537">
					<stop  offset="0.06" style="stop-color:#312782"/>
					<stop  offset="1" style="stop-color:#E5007E"/>
				</linearGradient>
				<path class="st2" d="M526.12,258.09c-3.53-7.26-8.33-13.67-14.42-19.23c-6.09-5.55-13.3-9.98-21.63-13.3
					c-8.33-3.31-17.1-4.97-26.28-4.97c-11.33,0-21.95,2.14-31.89,6.41c-9.93,4.28-18.59,10.1-25.96,17.46
					c-7.37,7.37-13.19,16.02-17.46,25.96c-3.5,8.13-5.54,16.74-6.17,25.8h-22.47v29.28c8.68-0.24,17.27-0.47,25.35-0.68
					c0.91,3.14,1.99,6.21,3.29,9.21c4.27,9.83,10.09,18.43,17.46,25.8c7.37,7.37,16.02,13.19,25.96,17.46
					c9.93,4.27,20.56,6.41,31.89,6.41c10.9,0,21.15-2.03,30.76-6.09c9.61-4.06,18.05-9.61,25.32-16.66l-18.91-19.23
					c-3.42,3.2-7.05,5.98-10.9,8.33c-3.42,2.14-7.37,3.9-11.86,5.29c-4.48,1.39-9.29,1.87-14.42,1.44c-5.98,0-11.54-1.39-16.66-4.17
					c-5.13-2.77-9.61-6.57-13.46-11.38c-3.85-4.81-6.89-10.41-9.13-16.82c-0.06-0.18-0.1-0.37-0.16-0.55
					c0.09,0.27,17.87,1.48,19.75,1.7c7.95,0.93,16.01,1.12,24,0.61c11.64-0.75,22-2.88,31.08-6.41c9.08-3.53,16.5-8.54,22.27-15.06
					c5.77-6.51,8.86-14.47,9.29-23.88C531.19,272.94,529.64,265.36,526.12,258.09z M494.23,282.29c-1.07,3.52-3.85,6.89-8.33,10.1
					c-4.49,3.2-11.27,5.45-20.35,6.73c-5.94,0.84-11.96,0.95-17.94,0.74c-4.69-0.17-9.4-0.23-14.07-0.77
					c-1.05-0.12-12.11-1.82-12.02-2.85c0.44-5.12,1.31-10,2.7-14.58c2.03-6.73,4.86-12.5,8.49-17.3c3.63-4.81,7.96-8.54,12.98-11.22
					c5.02-2.67,10.62-4.01,16.82-4.01c7.9,0,14.04,1.12,18.43,3.37c4.38,2.24,7.69,4.86,9.93,7.85c2.24,2.99,3.63,5.93,4.17,8.81
					c0.53,2.88,0.8,4.86,0.8,5.93C495.83,276.36,495.29,278.76,494.23,282.29z"/>
			</g>
			<path class="st1" d="M352.91,225.08c4.91,0,9.66,0.43,14.26,1.28c4.59,0.85,9.02,2.14,13.3,3.85l-10.9,24.35
				c-5.56-2.13-11.11-2.99-16.66-2.56c-5.77,0-11.22,1.44-16.34,4.33c-5.13,2.88-9.61,6.78-13.46,11.7
				c-3.85,4.92-6.89,10.69-9.13,17.31c-2.24,6.62-3.36,13.67-3.36,21.15v61.85c-5.56,2.99-11.49,5.34-17.79,7.05
				c-6.3,1.71-13.41,2.56-21.31,2.56v-71.46c0-11.11,2.13-21.63,6.41-31.57c4.27-9.93,10.1-18.59,17.47-25.96
				c7.37-7.37,15.97-13.19,25.8-17.46C331,227.22,341.58,225.08,352.91,225.08z"/>
			<path class="st1" d="M205.5,357.11c4.91,0.21,10.52-0.64,16.82-2.57c6.3-1.92,12.87-6.3,19.71-13.14l0.32,0.32
				c3.21,4.06,5.82,8.12,7.85,12.18c2.03,4.06,3.79,8.23,5.29,12.5c-6.84,5.56-14.48,9.83-22.91,12.82
				c-8.44,2.99-17.46,4.48-27.08,4.48c-11.33,0-21.9-2.14-31.73-6.41c-9.83-4.27-18.43-10.1-25.8-17.46
				c-7.37-7.37-13.19-15.97-17.46-25.8c-4.28-9.82-6.41-20.4-6.41-31.73c0-11.32,2.13-21.9,6.41-31.73
				c4.27-9.82,10.09-18.43,17.46-25.8c7.37-7.37,15.97-13.19,25.8-17.46c9.82-4.27,20.4-6.41,31.73-6.41
				c9.61,0,18.64,1.5,27.08,4.48c8.44,2.99,16.07,7.27,22.91,12.82c-1.5,4.28-3.26,8.44-5.29,12.5c-2.03,4.06-4.65,8.12-7.85,12.18
				l-0.32,0.32c-6.84-6.84-13.41-11.22-19.71-13.14c-6.3-1.92-11.91-2.77-16.82-2.56c-5.98,0.21-11.54,1.76-16.66,4.65
				c-5.13,2.88-9.61,6.78-13.46,11.7c-3.85,4.92-6.89,10.63-9.13,17.15c-2.24,6.52-3.37,13.62-3.37,21.31
				c0,7.48,1.12,14.53,3.37,21.15c2.24,6.63,5.29,12.39,9.13,17.3c3.85,4.92,8.33,8.81,13.46,11.7
				C193.96,355.35,199.51,356.9,205.5,357.11z"/>
		</g>
	</g>
</g>
</svg>
